<?xml version="1.0" encoding="iso-8859-1"?>
<!-- Generator: Adobe Illustrator 16.0.0, SVG Export Plug-In . SVG Version: 6.00 Build 0)  -->
<!DOCTYPE svg PUBLIC "-//W3C//DTD SVG 1.1//EN" "http://www.w3.org/Graphics/SVG/1.1/DTD/svg11.dtd">
<svg version="1.1" id="Capa_1" xmlns="http://www.w3.org/2000/svg" xmlns:xlink="http://www.w3.org/1999/xlink" x="0px" y="0px"
	 width="88.664px" height="88.664px" viewBox="0 0 88.664 88.664" style="enable-background:new 0 0 88.664 88.664;"
	 xml:space="preserve">
<g>
	<g>
		<path d="M81.579,13.658c-1.586,0-2.983,0.769-3.882,1.938c-0.188-0.108-0.376-0.204-0.559-0.283
			c-0.029-1.998-1.66-3.616-3.666-3.616c-1.477,0-2.771,0.909-3.344,2.218c-3.699-0.333-8.125-0.33-11.811,0.009
			c-0.568-1.313-1.867-2.227-3.348-2.227c-2.021,0-3.664,1.642-3.671,3.66c-0.239,0.108-0.491,0.244-0.731,0.411
			c-0.887-1.273-2.355-2.112-4.021-2.112c-2.444,0-6.084,3.495-6.792,4.195c-0.189,0.188-0.295,0.442-0.295,0.709
			s0.106,0.521,0.295,0.709c0.705,0.7,4.344,4.195,6.792,4.195c0.812,0,1.569-0.219,2.248-0.57l-1.224,8.401H19.346
			c-5.559,0-10.082,4.523-10.082,10.082v11.937L3.217,56.57L1.53,55.516c-0.467-0.291-1.085-0.148-1.378,0.318
			c-0.292,0.467-0.15,1.084,0.318,1.377l1.573,0.983l-0.565,2.427c-0.125,0.539,0.209,1.075,0.748,1.2
			c0.076,0.019,0.152,0.024,0.228,0.024c0.455,0,0.866-0.312,0.973-0.771l0.624-2.686l5.212-2.809v19.94c0,0.552,0.448,1,1,1h4.541
			c0.001,0,0.001,0,0.002,0c0.118,0,0.232-0.028,0.342-0.069c0.028-0.011,0.055-0.021,0.082-0.031
			c0.101-0.051,0.197-0.107,0.278-0.188c0.001-0.002,0.003-0.002,0.004-0.004c0.064-0.063,0.121-0.138,0.167-0.222l3.396-6.125
			l3.777,6.162c0.036,0.058,0.081,0.105,0.126,0.153c0.01,0.013,0.018,0.024,0.029,0.034c0.082,0.082,0.178,0.143,0.279,0.188
			c0.024,0.012,0.048,0.021,0.074,0.027c0.111,0.041,0.225,0.069,0.344,0.069c0.001,0,0.001,0,0.002,0h4.45c0.552,0,1-0.449,1-1
			v-8.99h7.536v8.99c0,0.551,0.448,1,1,1h5.357c0.146,0,0.28-0.035,0.404-0.091c0.032-0.014,0.057-0.041,0.087-0.059
			c0.093-0.053,0.177-0.111,0.246-0.189c0.011-0.012,0.026-0.016,0.035-0.028l6.259-7.642l7.395,8.136
			c0.006,0.006,0.016,0.008,0.021,0.013c0.078,0.082,0.173,0.146,0.272,0.196c0.021,0.011,0.033,0.026,0.056,0.036
			c0.12,0.052,0.253,0.08,0.394,0.08h4.271c0.552,0,1-0.446,1-1V61.808c0.207,0.008,0.41,0.03,0.621,0.03
			c10.091,0,18.301-8.209,18.301-18.3c0-0.026-0.014-0.049-0.016-0.075c-0.002-0.021,0.008-0.046,0.004-0.068l-2.977-20.459
			c0.654,0.322,1.383,0.521,2.157,0.521c2.444,0,6.085-3.496,6.79-4.195c0.188-0.188,0.295-0.442,0.295-0.709
			c0-0.267-0.104-0.521-0.295-0.709C87.664,17.151,84.023,13.658,81.579,13.658z M73.477,13.698c0.66,0,1.229,0.384,1.502,0.938
			c-0.172-0.04-0.369-0.074-0.555-0.112c-0.184-0.037-0.357-0.076-0.554-0.112c-0.271-0.05-0.563-0.097-0.853-0.143
			c-0.188-0.029-0.371-0.063-0.566-0.091c-0.041-0.006-0.077-0.013-0.117-0.019C72.633,13.873,73.038,13.698,73.477,13.698z
			 M54.975,13.698c0.44,0,0.853,0.18,1.152,0.474c-0.039,0.006-0.07,0.014-0.109,0.019c-0.232,0.033-0.444,0.07-0.666,0.106
			c-0.262,0.043-0.525,0.085-0.771,0.131c-0.206,0.039-0.395,0.082-0.588,0.123c-0.176,0.037-0.366,0.072-0.529,0.111
			C53.727,14.093,54.307,13.698,54.975,13.698z M46.549,21.467c-1.021,0-3.1-1.525-4.627-2.905c1.528-1.379,3.607-2.904,4.627-2.904
			c1.564,0,2.834,1.244,2.896,2.796l-0.146,1.014C48.912,20.625,47.832,21.467,46.549,21.467z M27.156,74.529h-2.89l-4.067-6.637
			c-0.003-0.004-0.007-0.008-0.01-0.012l0.746-1.344h6.222L27.156,74.529L27.156,74.529z M61.484,74.982h-2.825l-7.876-8.664
			c-0.02-0.02-0.041-0.025-0.061-0.045c-0.02-0.018-0.025-0.041-0.047-0.057c-0.035-0.027-0.076-0.037-0.111-0.062
			c-0.059-0.034-0.112-0.067-0.178-0.094c-0.061-0.021-0.117-0.033-0.18-0.045c-0.064-0.011-0.128-0.021-0.191-0.021
			c-0.062,0.004-0.123,0.016-0.187,0.027c-0.063,0.014-0.122,0.027-0.183,0.055c-0.063,0.027-0.114,0.063-0.17,0.104
			c-0.035,0.022-0.076,0.034-0.109,0.063c-0.02,0.02-0.025,0.041-0.044,0.062c-0.019,0.02-0.04,0.025-0.058,0.045l-6.692,8.172
			h-3.885V58.453c0-0.553-0.448-1-1-1c-0.552,0-1,0.447-1,1v6.084H20.345c-0.044,0-0.082,0.021-0.125,0.025
			c-0.071,0.01-0.138,0.018-0.205,0.041c-0.061,0.021-0.113,0.053-0.168,0.086c-0.055,0.031-0.108,0.062-0.157,0.105
			c-0.053,0.047-0.093,0.102-0.135,0.156c-0.026,0.034-0.062,0.061-0.084,0.1l-5.254,9.477h-2.952V41.38
			c0-4.457,3.625-8.082,8.082-8.082h27.938l-1.469,10.106c-0.004,0.021,0.007,0.047,0.004,0.067
			c-0.002,0.025-0.016,0.049-0.016,0.075c0,9.198,6.831,16.813,15.682,18.09v13.346H61.484z M64.104,59.851
			c-8.649,0-15.729-6.779-16.25-15.302h32.5C79.836,53.072,72.756,59.851,64.104,59.851z M47.961,42.549l1.416-9.739
			c0.094-0.151,0.16-0.319,0.16-0.512c0-0.089-0.029-0.168-0.051-0.249l1.773-12.199c0.111-0.413,0.191-0.84,0.191-1.286
			c0-0.009-0.002-0.017-0.002-0.023l0.152-1.051c0.098-0.083,0.385-0.287,1.105-0.536c1.166-0.4,2.896-0.733,5.004-0.962
			c3.949-0.433,9.051-0.438,13.021-0.012c2.102,0.226,3.834,0.553,5.02,0.946c0.539,0.18,0.85,0.336,1.023,0.445
			c-0.094,0.183-0.131,0.392-0.104,0.6l0.033,0.229c-0.009,0.122-0.037,0.237-0.037,0.361c0,0.634,0.133,1.233,0.354,1.79
			l3.229,22.196L47.961,42.549L47.961,42.549z M81.579,21.467c-1.151,0-2.146-0.682-2.614-1.658l-0.244-1.693
			c0.002-0.015,0.002-0.029,0.004-0.043c0.135-0.246,0.178-0.47,0.188-0.657c0.445-1.032,1.475-1.757,2.667-1.757
			c1.021,0,3.101,1.525,4.628,2.904C84.68,19.94,82.6,21.467,81.579,21.467z"/>
		<path d="M54.955,33.479c-1.305,0-2.359,1.061-2.359,2.361c0,1.302,1.061,2.361,2.359,2.361c1.303,0,2.361-1.061,2.361-2.361
			C57.316,34.539,56.258,33.479,54.955,33.479z M54.955,36.204c-0.199,0-0.359-0.163-0.359-0.362c0-0.198,0.16-0.361,0.359-0.361
			s0.361,0.163,0.361,0.361C55.316,36.041,55.155,36.204,54.955,36.204z"/>
		<path d="M72.747,33.479c-1.304,0-2.36,1.061-2.36,2.361c0,1.302,1.062,2.361,2.36,2.361c1.302,0,2.36-1.061,2.36-2.361
			C75.107,34.539,74.053,33.479,72.747,33.479z M72.747,36.204c-0.2,0-0.36-0.163-0.36-0.362c0-0.198,0.162-0.361,0.36-0.361
			c0.199,0,0.36,0.163,0.36,0.361C73.107,36.041,72.947,36.204,72.747,36.204z"/>
	</g>
</g>
<g>
</g>
<g>
</g>
<g>
</g>
<g>
</g>
<g>
</g>
<g>
</g>
<g>
</g>
<g>
</g>
<g>
</g>
<g>
</g>
<g>
</g>
<g>
</g>
<g>
</g>
<g>
</g>
<g>
</g>
</svg>
